<?xml version="1.0" standalone="no"?>
<!DOCTYPE svg PUBLIC "-//W3C//DTD SVG 20010904//EN"
 "http://www.w3.org/TR/2001/REC-SVG-20010904/DTD/svg10.dtd">
<svg version="1.0" xmlns="http://www.w3.org/2000/svg"
 width="500.000000pt" height="541.000000pt" viewBox="0 0 500.000000 541.000000"
 preserveAspectRatio="xMidYMid meet">

<g transform="translate(0.000000,541.000000) scale(0.100000,-0.100000)"
fill="#000000" stroke="none">
<path d="M2305 4148 c-2 -7 -6 -40 -7 -73 l-3 -60 -43 -9 c-51 -11 -57 -5 -66
58 -12 74 -8 73 -169 20 -132 -44 -147 -51 -151 -74 -12 -60 -159 -1231 -155
-1234 2 -2 114 -69 248 -150 l245 -146 305 0 306 0 245 147 c135 80 247 147
249 149 2 2 -13 133 -33 291 -74 577 -126 966 -128 968 -17 13 -292 95 -297
89 -4 -5 -13 -35 -20 -68 l-13 -58 -41 6 c-22 4 -44 9 -49 12 -4 3 -8 36 -8
75 l0 69 -205 0 c-156 0 -207 -3 -210 -12z m297 -205 l3 -67 143 -32 142 -31
10 36 c5 20 12 49 16 64 6 26 10 28 38 23 16 -4 34 -10 38 -14 6 -6 128 -978
128 -1022 0 -9 -75 -60 -179 -122 l-180 -108 -251 0 -252 0 -179 107 c-137 83
-179 113 -179 128 0 49 121 1010 128 1017 4 4 22 10 39 14 31 6 31 6 43 -52 7
-33 14 -62 16 -65 2 -3 68 8 146 26 l143 32 3 66 3 67 89 0 89 0 3 -67z"/>
<path d="M3746 2149 c-104 -25 -152 -118 -111 -215 17 -42 71 -68 160 -79 66
-8 85 -18 85 -46 0 -41 -89 -53 -133 -19 -18 15 -40 20 -81 20 l-56 0 6 -27
c17 -69 78 -113 169 -121 68 -6 130 13 172 52 31 28 37 40 40 87 6 76 -18 113
-88 133 -29 9 -62 16 -73 16 -12 0 -37 5 -58 10 -55 16 -61 56 -12 79 38 17
63 13 90 -14 20 -21 35 -25 79 -25 62 0 65 4 34 66 -32 68 -133 105 -223 83z"/>
<path d="M1016 2142 c-3 -5 41 -113 97 -240 102 -232 102 -232 132 -230 29 3
33 11 131 233 56 127 99 234 95 238 -5 5 -32 7 -61 5 l-53 -3 -53 -128 c-28
-71 -54 -130 -57 -133 -2 -3 -30 56 -62 131 l-57 135 -54 0 c-29 0 -55 -4 -58
-8z"/>
<path d="M1550 2095 c0 -52 1 -55 25 -55 l25 0 0 -129 0 -130 -27 -3 c-26 -3
-28 -7 -31 -55 l-3 -53 126 0 126 0 -3 53 c-3 48 -5 52 -30 55 l-28 3 0 130 0
129 25 0 c24 0 25 3 25 55 l0 55 -115 0 -115 0 0 -55z"/>
<path d="M1890 1910 l0 -240 145 0 145 0 0 55 0 55 -85 0 -85 0 0 185 0 185
-60 0 -60 0 0 -240z"/>
<path d="M2227 2143 c-9 -8 -9 -56 -1 -77 4 -10 18 -16 35 -16 l29 0 0 -190 0
-190 59 0 58 0 7 38 c3 20 6 72 6 116 l0 78 120 -116 c70 -67 129 -116 140
-116 19 0 20 9 20 240 l0 240 -60 0 -59 0 -3 -116 -3 -117 -121 117 -122 116
-49 0 c-27 0 -53 -3 -56 -7z"/>
<path d="M2810 2095 c0 -54 0 -55 30 -55 l30 0 0 -130 0 -130 -30 0 c-30 0
-30 -1 -30 -55 l0 -55 120 0 120 0 0 55 c0 54 0 55 -30 55 l-30 0 0 129 0 130
28 3 c25 3 27 6 27 53 l0 50 -117 3 -118 3 0 -56z"/>
<path d="M3150 1969 c0 -145 3 -188 16 -215 43 -90 204 -118 296 -52 57 40 68
83 68 276 l0 172 -60 0 -60 0 0 -167 c0 -93 -4 -173 -8 -179 -11 -16 -48 -34
-72 -34 -11 0 -32 11 -45 25 -25 24 -25 27 -25 190 l0 165 -55 0 -55 0 0 -181z"/>
</g>
</svg>
